<svg width="271" height="338" viewBox="0 0 271 338" fill="none" xmlns="http://www.w3.org/2000/svg">
<path opacity="0.3" d="M138.042 0.0254148C139.736 0.056582 141.422 0.119144 143.101 0.211939L143.019 1.70706C144.694 1.7997 146.361 1.92355 148.02 2.07717L148.157 0.584987C149.846 0.741439 151.526 0.928645 153.196 1.14651L153.004 2.63284C154.665 2.84956 156.317 3.09706 157.959 3.37405L158.207 1.89554C159.877 2.17722 161.535 2.48991 163.184 2.83206L162.88 4.29886C164.521 4.63949 166.15 5.01015 167.769 5.41019L168.128 3.95608C169.773 4.36265 171.405 4.79963 173.025 5.26566L172.612 6.70511C174.221 7.16777 175.817 7.66 177.4 8.1807L177.868 6.75687C179.475 7.28549 181.069 7.84322 182.649 8.42972L182.128 9.83499C183.697 10.4174 185.252 11.0281 186.793 11.667L187.367 10.2842C188.93 10.9323 190.478 11.6092 192.011 12.3135L191.387 13.6748C192.907 14.3733 194.412 15.0986 195.9 15.8516L196.576 14.5147C198.085 15.2778 199.577 16.0685 201.053 16.8858L200.328 18.1973C201.791 19.0074 203.237 19.8444 204.666 20.7071L205.439 19.4239C206.887 20.2981 208.318 21.1979 209.729 22.1241L208.907 23.378C210.305 24.295 211.685 25.2369 213.046 26.2041L213.915 24.9815C215.293 25.9606 216.651 26.9655 217.989 27.9942L217.076 29.1836C218.401 30.2019 219.707 31.2445 220.992 32.3106L221.948 31.1573C223.249 32.2361 224.529 33.339 225.788 34.4649L224.79 35.5821C226.036 36.696 227.261 37.8331 228.464 38.9922L229.503 37.9131C230.719 39.0852 231.914 40.2797 233.086 41.4961L232.008 42.5362C233.167 43.7393 234.304 44.9644 235.418 46.21L236.534 45.211C237.66 46.47 238.763 47.7501 239.842 49.0508L238.689 50.0079C239.756 51.2931 240.798 52.5988 241.816 53.9239L243.005 53.0098C244.034 54.3485 245.038 55.7065 246.018 57.084L244.796 57.9541C245.763 59.3149 246.705 60.695 247.622 62.0928L248.875 61.2696C249.801 62.6813 250.701 64.1118 251.575 65.5596L250.294 66.334C251.157 67.7626 251.993 69.2092 252.803 70.6719L254.113 69.9463C254.931 71.4219 255.721 72.9142 256.484 74.4229L255.148 75.0997C255.901 76.5884 256.627 78.0934 257.325 79.6133L258.686 78.9883C259.39 80.5211 260.067 82.069 260.715 83.6319L259.333 84.2071C259.972 85.7477 260.583 87.3031 261.165 88.8721L262.569 88.3497C263.156 89.9297 263.714 91.5237 264.242 93.1309L262.819 93.5997C263.34 95.1828 263.832 96.7791 264.295 98.3877L265.733 97.9737C266.199 99.594 266.636 101.227 267.043 102.871L265.59 103.231C265.99 104.85 266.361 106.479 266.701 108.12L268.167 107.815C268.509 109.464 268.822 111.123 269.103 112.792L267.626 113.041C267.903 114.683 268.15 116.335 268.367 117.996L269.853 117.803C270.07 119.473 270.258 121.153 270.414 122.842L268.923 122.981C269.076 124.639 269.2 126.306 269.293 127.981L270.788 127.898C270.881 129.577 270.942 131.263 270.974 132.957L269.477 132.984C269.492 133.821 269.5 134.66 269.5 135.5L269.5 138.031L271 138.031L271 143.094L269.5 143.094L269.5 148.156L271 148.156L271 153.219L269.5 153.219L269.5 158.281L271 158.281L271 163.344L269.5 163.344L269.5 168.406L271 168.406L271 173.469L269.5 173.469L269.5 178.531L271 178.531L271 183.594L269.5 183.594L269.5 188.656L271 188.656L271 193.719L269.5 193.719L269.5 198.781L271 198.781L271 203.844L269.5 203.844L269.5 208.906L271 208.906L271 213.969L269.5 213.969L269.5 219.031L271 219.031L271 224.094L269.5 224.094L269.5 229.156L271 229.156L271 234.219L269.5 234.219L269.5 239.281L271 239.281L271 244.344L269.5 244.344L269.5 249.406L271 249.406L271 254.469L269.5 254.469L269.5 259.531L271 259.531L271 264.594L269.5 264.594L269.5 269.656L271 269.656L271 274.719L269.5 274.719L269.5 279.781L271 279.781L271 284.844L269.5 284.844L269.5 289.906L271 289.906L271 294.969L269.5 294.969L269.5 300.031L271 300.031L271 305.094L269.5 305.094L269.5 310.156L271 310.156L271 315.219L269.5 315.219L269.5 320.281L271 320.281L271 325.344L269.5 325.344L269.5 330.406L271 330.406L271 335.469L269.5 335.469L269.5 336.5L268.491 336.5L268.491 338L263.473 338L263.473 336.5L258.454 336.5L258.454 338L253.435 338L253.435 336.5L248.417 336.5L248.417 338L243.398 338L243.398 336.5L238.38 336.5L238.38 338L233.361 338L233.361 336.5L228.343 336.5L228.343 338L223.324 338L223.324 336.5L218.306 336.5L218.306 338L213.287 338L213.287 336.5L208.268 336.5L208.268 338L203.25 338L203.25 336.5L198.231 336.5L198.231 338L193.213 338L193.213 336.5L188.194 336.5L188.194 338L183.176 338L183.176 336.5L178.157 336.5L178.157 338L173.139 338L173.139 336.5L168.12 336.5L168.12 338L163.102 338L163.102 336.5L158.083 336.5L158.083 338L153.064 338L153.064 336.5L148.046 336.5L148.046 338L143.028 338L143.028 336.5L138.01 336.5L138.01 338L132.991 338L132.991 336.5L127.973 336.5L127.973 338L122.954 338L122.954 336.5L117.935 336.5L117.935 338L112.917 338L112.917 336.5L107.898 336.5L107.898 338L102.88 338L102.88 336.5L97.8613 336.5L97.8613 338L92.8427 338L92.8427 336.5L87.8242 336.5L87.8242 338L82.8056 338L82.8056 336.5L77.7871 336.5L77.7871 338L72.7685 338L72.7685 336.5L67.7499 336.5L67.7499 338L62.7314 338L62.7314 336.5L57.7128 336.5L57.7128 338L52.6943 338L52.6943 336.5L47.6757 336.5L47.6757 338L42.6572 338L42.6572 336.5L37.6386 336.5L37.6386 338L32.6201 338L32.6201 336.5L27.6015 336.5L27.6015 338L22.5829 338L22.5829 336.5L17.5644 336.5L17.5644 338L12.5458 338L12.5458 336.5L7.52728 336.5L7.52728 338L2.50873 338L2.50873 336.5L1.49994 336.5L1.49994 335.469L-5.86552e-05 335.469L-5.77701e-05 330.406L1.49994 330.406L1.49994 325.344L-5.68849e-05 325.344L-5.59998e-05 320.281L1.49994 320.281L1.49994 315.219L-5.51146e-05 315.219L-5.42294e-05 310.156L1.49995 310.156L1.49995 305.094L-5.33443e-05 305.094L-5.24591e-05 300.031L1.49995 300.031L1.49995 294.969L-5.1574e-05 294.969L-5.06888e-05 289.906L1.49995 289.906L1.49995 284.844L-4.98037e-05 284.844L-4.89185e-05 279.781L1.49995 279.781L1.49995 274.719L-4.80334e-05 274.719L-4.71482e-05 269.656L1.49995 269.656L1.49995 264.594L-4.6263e-05 264.594L-4.53779e-05 259.531L1.49995 259.531L1.49996 254.469L-4.44927e-05 254.469L-4.36076e-05 249.406L1.49996 249.406L1.49996 244.344L-4.27224e-05 244.344L-4.18373e-05 239.281L1.49996 239.281L1.49996 234.219L-4.09521e-05 234.219L-4.0067e-05 229.156L1.49996 229.156L1.49996 224.094L-3.91818e-05 224.094L-3.82966e-05 219.031L1.49996 219.031L1.49996 213.969L-3.74115e-05 213.969L-3.65263e-05 208.906L1.49996 208.906L1.49996 203.844L-3.56412e-05 203.844L-3.4756e-05 198.781L1.49997 198.781L1.49997 193.719L-3.38709e-05 193.719L-3.29857e-05 188.656L1.49997 188.656L1.49997 183.594L-3.21006e-05 183.594L-3.12154e-05 178.531L1.49997 178.531L1.49997 173.469L-3.03302e-05 173.469L-2.94451e-05 168.406L1.49997 168.406L1.49997 163.344L-2.85599e-05 163.344L-2.76748e-05 158.281L1.49997 158.281L1.49997 153.219L-2.67896e-05 153.219L-2.59045e-05 148.156L1.49997 148.156L1.49997 143.094L-2.50193e-05 143.094L-2.41342e-05 138.031L1.49998 138.031L1.49998 135.5C1.49998 134.66 1.50801 133.821 1.52341 132.984L0.0253674 132.957C0.0565471 131.263 0.119084 129.577 0.211892 127.898L1.70701 127.981C1.79965 126.306 1.9235 124.639 2.07713 122.98L0.584939 122.842C0.741404 121.153 0.928585 119.473 1.14646 117.803L2.63279 117.996C2.84951 116.335 3.09701 114.683 3.374 113.041L1.89549 112.792C2.17718 111.123 2.48985 109.464 2.83201 107.815L4.29881 108.12C4.63944 106.479 5.0101 104.85 5.41014 103.231L3.95604 102.871C4.36262 101.227 4.79957 99.5939 5.26561 97.9736L6.70506 98.3887C7.16776 96.7799 7.65991 95.1829 8.18065 93.5996L6.75682 93.1309C7.28545 91.5236 7.84316 89.9297 8.42967 88.3496L9.83495 88.8721C10.4174 87.303 11.0281 85.7477 11.667 84.207L10.2842 83.6318C10.9323 82.0689 11.6092 80.521 12.3135 78.9883L13.6748 79.6133C14.3732 78.0933 15.0985 76.5883 15.8515 75.0996L14.5146 74.4229C15.2778 72.9142 16.0685 71.4219 16.8857 69.9463L18.1973 70.6719C19.0074 69.2091 19.8444 67.7626 20.707 66.334L19.4238 65.5596C20.298 64.1118 21.1978 62.6813 22.124 61.2695L23.3779 62.0928C24.2949 60.695 25.2368 59.3149 26.2041 57.9541L24.9814 57.084C25.9606 55.7065 26.9654 54.3484 27.9941 53.0098L29.1836 53.9238C30.2019 52.5987 31.2445 51.2931 32.3105 50.0078L31.1572 49.0508C32.2361 47.7501 33.3389 46.47 34.4648 45.2109L35.582 46.21C36.696 44.9643 37.833 43.7392 38.9922 42.5361L37.9131 41.4961C39.0851 40.2797 40.2797 39.0851 41.4961 37.9131L42.5361 38.9922C43.7392 37.833 44.9643 36.696 46.21 35.582L45.2109 34.4649C46.47 33.3389 47.7501 32.2361 49.0508 31.1572L50.0078 32.3106C51.2931 31.2445 52.5987 30.2019 53.9238 29.1836L53.0098 27.9941C54.3484 26.9654 55.7065 25.9606 57.084 24.9815L57.9541 26.2051C59.315 25.2377 60.6948 24.2951 62.0928 23.3779L61.2695 22.124C62.6813 21.1978 64.1118 20.2981 65.5596 19.4238L66.334 20.707C67.7626 19.8444 69.2091 19.0074 70.6719 18.1973L69.9463 16.8858C71.4219 16.0685 72.9142 15.2778 74.4228 14.5147L75.0996 15.8516C76.5883 15.0986 78.0933 14.3732 79.6133 13.6748L78.9883 12.3135C80.521 11.6092 82.0689 10.9323 83.6318 10.2842L84.207 11.667C85.7477 11.0281 87.3031 10.4174 88.8721 9.83498L88.3496 8.4297C89.9296 7.84319 91.5236 7.28548 93.1309 6.75685L93.5996 8.18068C95.1828 7.65998 96.7791 7.16776 98.3877 6.7051L97.9736 5.26564C99.5939 4.79961 101.227 4.36265 102.871 3.95607L103.231 5.41017C104.85 5.01014 106.479 4.63948 108.12 4.29885L107.815 2.83205C109.464 2.48989 111.123 2.17722 112.792 1.89553L113.041 3.37404C114.683 3.09705 116.335 2.84955 117.996 2.63283L117.803 1.1465C119.473 0.928627 121.153 0.741446 122.842 0.584982L122.98 2.07717C124.639 1.92355 126.306 1.7997 127.981 1.70705L127.898 0.211936C129.577 0.119129 131.263 0.0565933 132.957 0.0254139L132.984 1.52346C133.821 1.50806 134.66 1.50002 135.5 1.50002C136.34 1.50002 137.179 1.50806 138.016 1.52346L138.042 0.0254148Z" stroke="white" stroke-width="3" stroke-dasharray="5 5"/>
</svg>
